<svg xmlns="http://www.w3.org/2000/svg" width="24" height="24" viewBox="0 0 24 24" fill="none" stroke="currentColor" stroke-width="2" stroke-linecap="round" stroke-linejoin="round">
  <circle cx="13.5" cy="6.5" r="2.5"/>
  <circle cx="19" cy="13" r="2"/>
  <circle cx="6" cy="12" r="2"/>
  <circle cx="10" cy="18" r="2"/>
  <path d="M12 2C6.5 2 2 6.5 2 12s4.5 10 10 10c.93 0 1.5-.67 1.5-1.5 0-.39-.14-.77-.38-1.06-.24-.28-.38-.67-.38-1.06 0-.83.67-1.5 1.5-1.5H16c3.31 0 6-2.69 6-6 0-5.5-4.5-9-10-9z"/>
</svg>
